<svg id="Layer_1" xmlns="http://www.w3.org/2000/svg" viewBox="-383 257 256 256"><style>.gear,.robot{fill:#4e4c4c}</style><path class="gear" d="M-128.7 381.9l-10.7-6.7c-.1-1-.2-2.1-.3-3.1l9.2-8.6c.9-.9 1.4-2.2 1.1-3.4-.2-1.3-1.1-2.3-2.3-2.7l-11.8-4.4-.9-3 7.4-10.2c.8-1 .9-2.4.4-3.6-.5-1.2-1.6-2-2.8-2.2l-12.4-2c-.5-.9-1-1.9-1.5-2.8l5.2-11.5c.5-1.2.4-2.5-.3-3.6s-1.9-1.7-3.2-1.6l-12.6.4c-.7-.8-1.3-1.6-2-2.4l2.9-12.3c.3-1.2-.1-2.6-1-3.5-.9-.9-2.2-1.3-3.5-1l-12.3 2.9c-.8-.7-1.6-1.3-2.4-2l.4-12.6c0-1.3-.6-2.5-1.6-3.2-1.1-.7-2.4-.8-3.6-.3l-11.5 5.2c-.9-.5-1.9-1-2.8-1.5l-2-12.5c-.2-1.3-1.1-2.3-2.2-2.8-1.2-.5-2.5-.3-3.6.4l-10.2 7.4-3-.9-4.4-11.8c-.4-1.2-1.5-2.1-2.7-2.3-1.3-.2-2.6.2-3.4 1.1l-8.6 9.2c-1-.1-2.1-.2-3.1-.3l-6.7-10.7c-.7-1.1-1.9-1.8-3.1-1.8-1.3 0-2.5.7-3.1 1.8l-6.7 10.7c-1 .1-2.1.2-3.1.3l-8.6-9.2c-.9-.9-2.2-1.4-3.4-1.1-1.3.3-2.3 1.1-2.7 2.3l-4.4 11.8-3 .9-10.2-7.4c-1-.8-2.4-.9-3.6-.4-1.2.5-2 1.6-2.2 2.8l-2 12.5c-.9.5-1.9 1-2.8 1.5l-11.5-5.2c-1.2-.5-2.5-.4-3.6.3s-1.7 1.9-1.6 3.2l.4 12.6c-.8.7-1.6 1.3-2.4 2l-12.3-2.9c-1.2-.3-2.6.1-3.5 1-.9.9-1.3 2.2-1 3.5l2.9 12.3c-.7.8-1.3 1.6-2 2.4l-12.6-.4c-1.3 0-2.5.6-3.2 1.6-.7 1.1-.8 2.4-.3 3.6l5.2 11.5c-.5.9-1 1.9-1.5 2.8l-12.4 2c-1.3.2-2.3 1.1-2.8 2.2-.5 1.2-.3 2.5.4 3.6l7.4 10.2-.9 3-11.8 4.4c-1.2.4-2.1 1.5-2.3 2.7-.2 1.3.2 2.6 1.1 3.4l9.2 8.6c-.1 1-.2 2.1-.3 3.1l-10.7 6.7c-1.1.7-1.8 1.9-1.8 3.1s.7 2.5 1.8 3.1l10.7 6.7c.1 1 .2 2.1.3 3.1l-9.2 8.6c-.9.9-1.4 2.2-1.1 3.4.2 1.3 1.1 2.3 2.3 2.7l11.8 4.4.9 3-7.4 10.2c-.7 1-.9 2.4-.4 3.6.5 1.2 1.6 2 2.8 2.2l12.4 2c.5.9 1 1.9 1.5 2.8l-5.2 11.5c-.5 1.2-.4 2.5.3 3.6s1.9 1.7 3.2 1.6l12.6-.4c.7.8 1.3 1.6 2 2.4l-2.9 12.3c-.3 1.2.1 2.6 1 3.5.9.9 2.2 1.3 3.5 1l12.3-2.9c.8.7 1.6 1.3 2.4 2l-.4 12.6c0 1.3.6 2.5 1.6 3.2 1.1.7 2.4.8 3.6.3l11.5-5.2c.9.5 1.9 1 2.8 1.5l2 12.4c.2 1.3 1.1 2.3 2.2 2.8 1.2.5 2.5.3 3.6-.4l10.2-7.4 3 .9 4.4 11.8c.4 1.2 1.5 2.1 2.7 2.3 1.3.3 2.6-.2 3.4-1.1l8.6-9.2c1 .1 2.1.2 3.1.3l6.7 10.7c.7 1.1 1.9 1.8 3.1 1.8s2.5-.7 3.1-1.8l6.7-10.7c1-.1 2.1-.2 3.1-.3l8.6 9.2c.9.9 2.2 1.4 3.4 1.1 1.3-.2 2.3-1.1 2.7-2.3l4.4-11.8 3-.9 10.2 7.4c1 .7 2.4.9 3.6.4 1.2-.5 2-1.6 2.2-2.8l2-12.4c.9-.5 1.9-1 2.8-1.5l11.5 5.2c1.2.5 2.5.4 3.6-.3s1.7-1.9 1.6-3.2l-.4-12.6c.8-.7 1.6-1.3 2.4-2l12.3 2.9c1.2.3 2.6-.1 3.5-1 .9-.9 1.3-2.2 1-3.5l-2.9-12.3c.7-.8 1.3-1.6 2-2.4l12.6.4c1.3.1 2.5-.6 3.2-1.6.7-1.1.8-2.4.3-3.6l-5.2-11.5c.5-.9 1-1.9 1.5-2.8l12.4-2c1.3-.2 2.3-1 2.8-2.2.5-1.2.3-2.5-.4-3.6l-7.4-10.2.9-3 11.8-4.4c1.2-.5 2.1-1.5 2.3-2.7.3-1.3-.2-2.6-1.1-3.4l-9.2-8.6c.1-1 .2-2.1.3-3.1l10.7-6.7c1.1-.7 1.8-1.9 1.8-3.1s-.8-2.5-1.8-3.1zm-126.6-103.8c4.2 0 7.6 3.4 7.6 7.6 0 4.2-3.4 7.6-7.6 7.6-4.2 0-7.6-3.4-7.6-7.6 0-4.2 3.4-7.6 7.6-7.6zm-106.6 107.2c0-4.2 3.4-7.6 7.6-7.6 4.2 0 7.6 3.4 7.6 7.6 0 4.2-3.4 7.6-7.6 7.6-4.2 0-7.6-3.4-7.6-7.6zm107.2 106.6c-4.2 0-7.6-3.4-7.6-7.6 0-4.2 3.4-7.6 7.6-7.6 4.2 0 7.6 3.4 7.6 7.6 0 4.2-3.4 7.6-7.6 7.6zm16.8-12.8l-11.7-12.2c-2.6-2.8-7-2.9-9.8-.2l-13 12.4c-39-7.2-69.8-38-76.8-77l12.2-11.7c2.8-2.6 2.9-7 .2-9.8l-12.4-13c7.2-39 38-69.8 77-76.8l11.7 12.2c2.6 2.8 7 2.9 9.8.2l13-12.4c39 7.2 69.8 38 76.8 77l-12.2 11.7c-2.8 2.6-2.9 7-.2 9.8l12.4 13c-7.2 39.1-38 69.8-77 76.8zm82.2-86.8c-4.2 0-7.6-3.4-7.6-7.6 0-4.2 3.4-7.6 7.6-7.6 4.2 0 7.6 3.4 7.6 7.6 0 4.2-3.4 7.6-7.6 7.6z"/><path class="robot" d="M-185.9 399.2c.9-4.6 1.4-9.3 1.4-14.2 0-13-3.5-25.2-9.7-35.7l4.4-4.4c.9-.9 1.5-2.2 1.5-3.5 0-1.3-.5-2.6-1.5-3.5l-18-18c-.9-.9-2.2-1.5-3.5-1.5-1.3 0-2.6.5-3.5 1.5l-4.4 4.4c-10.5-6.2-22.7-9.7-35.7-9.7s-25.2 3.5-35.7 9.7l-4.4-4.4c-.9-.9-2.2-1.5-3.5-1.5-1.3 0-2.6.5-3.5 1.5l-18 18c-.9.9-1.5 2.2-1.5 3.5 0 1.3.5 2.6 1.5 3.5l4.4 4.4c-6.2 10.5-9.7 22.7-9.7 35.7 0 13 3.5 25.2 9.7 35.7l-4.4 4.4c-.9.9-1.5 2.2-1.5 3.5 0 1.3.5 2.6 1.5 3.5l18 18c.9.9 2.2 1.5 3.5 1.5 1.3 0 2.6-.5 3.5-1.5l4.4-4.4c10.5 6.2 22.7 9.7 35.7 9.7 7.3 0 14.3-1.1 21-3.2 2.2-.7 4.4-1.5 6.5-2.4 2.9-1.2 5.6-2.6 8.3-4.2l4.4 4.4c.9.9 2.2 1.5 3.5 1.5 1.3 0 2.6-.5 3.5-1.5l18-18c.9-.9 1.5-2.2 1.5-3.5 0-1.3-.5-2.6-1.5-3.5l-4.4-4.4 1.2-2.1c3.1-5.9 5.6-12.4 7-19.3zm-69.1 4.5c-10.3 0-18.7-8.4-18.7-18.7s8.4-18.7 18.7-18.7 18.7 8.4 18.7 18.7-8.4 18.7-18.7 18.7zm0-83.2v39.8c-12.6 0-23 9.5-24.5 21.7h-39.9c1.5-34.2 29.8-61.5 64.4-61.5zm-24.6 63v-.1.1zm0 3.1v-.1.1zm24.6 62.9c-34.6 0-62.9-27.3-64.4-61.5h39.9c1.5 12.2 11.9 21.7 24.5 21.7v39.8z"/></svg>