<?xml version="1.0" encoding="utf-8"?>
<!-- Generator: Adobe Illustrator 19.1.0, SVG Export Plug-In . SVG Version: 6.00 Build 0)  -->
<svg version="1.1" id="Layer_1" xmlns="http://www.w3.org/2000/svg" xmlns:xlink="http://www.w3.org/1999/xlink" x="0px" y="0px"  viewBox="-383 257 256 256"  xml:space="preserve">
<style type="text/css">
	.gear,
	.robot { fill:#4E4C4C }
</style>
<path class="gear" d="M-128.7,381.9l-10.7-6.7c-0.1-1-0.2-2.1-0.3-3.1l9.2-8.6c0.9-0.9,1.4-2.2,1.1-3.4c-0.2-1.3-1.1-2.3-2.3-2.7l-11.8-4.4
	c-0.3-1-0.6-2-0.9-3l7.4-10.2c0.8-1,0.9-2.4,0.4-3.6c-0.5-1.2-1.6-2-2.8-2.2l-12.4-2c-0.5-0.9-1-1.9-1.5-2.8l5.2-11.5
	c0.5-1.2,0.4-2.5-0.3-3.6c-0.7-1.1-1.9-1.7-3.2-1.6l-12.6,0.4c-0.7-0.8-1.3-1.6-2-2.4l2.9-12.3c0.3-1.2-0.1-2.6-1-3.5
	c-0.9-0.9-2.2-1.3-3.5-1l-12.3,2.9c-0.8-0.7-1.6-1.3-2.4-2l0.4-12.6c0-1.3-0.6-2.5-1.6-3.2c-1.1-0.7-2.4-0.8-3.6-0.3l-11.5,5.2
	c-0.9-0.5-1.9-1-2.8-1.5l-2-12.5c-0.2-1.3-1.1-2.3-2.2-2.8c-1.2-0.5-2.5-0.3-3.6,0.4l-10.2,7.4c-1-0.3-2-0.6-3-0.9l-4.4-11.8
	c-0.4-1.2-1.5-2.1-2.7-2.3c-1.3-0.2-2.6,0.2-3.4,1.1l-8.6,9.2c-1-0.1-2.1-0.2-3.1-0.3l-6.7-10.7c-0.7-1.1-1.9-1.8-3.1-1.8
	c-1.3,0-2.5,0.7-3.1,1.8l-6.7,10.7c-1,0.1-2.1,0.2-3.1,0.3l-8.6-9.2c-0.9-0.9-2.2-1.4-3.4-1.1c-1.3,0.3-2.3,1.1-2.7,2.3l-4.4,11.8
	c-1,0.3-2,0.6-3,0.9l-10.2-7.4c-1-0.8-2.4-0.9-3.6-0.4c-1.2,0.5-2,1.6-2.2,2.8l-2,12.5c-0.9,0.5-1.9,1-2.8,1.5l-11.5-5.2
	c-1.2-0.5-2.5-0.4-3.6,0.3c-1.1,0.7-1.7,1.9-1.6,3.2l0.4,12.6c-0.8,0.7-1.6,1.3-2.4,2l-12.3-2.9c-1.2-0.3-2.6,0.1-3.5,1
	c-0.9,0.9-1.3,2.2-1,3.5l2.9,12.3c-0.7,0.8-1.3,1.6-2,2.4l-12.6-0.4c-1.3,0-2.5,0.6-3.2,1.6c-0.7,1.1-0.8,2.4-0.3,3.6l5.2,11.5
	c-0.5,0.9-1,1.9-1.5,2.8l-12.4,2c-1.3,0.2-2.3,1.1-2.8,2.2c-0.5,1.2-0.3,2.5,0.4,3.6l7.4,10.2c-0.3,1-0.6,2-0.9,3l-11.8,4.4
	c-1.2,0.4-2.1,1.5-2.3,2.7c-0.2,1.3,0.2,2.6,1.1,3.4l9.2,8.6c-0.1,1-0.2,2.1-0.3,3.1l-10.7,6.7c-1.1,0.7-1.8,1.9-1.8,3.1
	s0.7,2.5,1.8,3.1l10.7,6.7c0.1,1,0.2,2.1,0.3,3.1l-9.2,8.6c-0.9,0.9-1.4,2.2-1.1,3.4c0.2,1.3,1.1,2.3,2.3,2.7l11.8,4.4
	c0.3,1,0.6,2,0.9,3l-7.4,10.2c-0.7,1-0.9,2.4-0.4,3.6c0.5,1.2,1.6,2,2.8,2.2l12.4,2c0.5,0.9,1,1.9,1.5,2.8l-5.2,11.5
	c-0.5,1.2-0.4,2.5,0.3,3.6c0.7,1.1,1.9,1.7,3.2,1.6l12.6-0.4c0.7,0.8,1.3,1.6,2,2.4l-2.9,12.3c-0.3,1.2,0.1,2.6,1,3.5
	c0.9,0.9,2.2,1.3,3.5,1l12.3-2.9c0.8,0.7,1.6,1.3,2.4,2l-0.4,12.6c0,1.3,0.6,2.5,1.6,3.2c1.1,0.7,2.4,0.8,3.6,0.3l11.5-5.2
	c0.9,0.5,1.9,1,2.8,1.5l2,12.4c0.2,1.3,1.1,2.3,2.2,2.8c1.2,0.5,2.5,0.3,3.6-0.4l10.2-7.4c1,0.3,2,0.6,3,0.9l4.4,11.8
	c0.4,1.2,1.5,2.1,2.7,2.3c1.3,0.3,2.6-0.2,3.4-1.1l8.6-9.2c1,0.1,2.1,0.2,3.1,0.3l6.7,10.7c0.7,1.1,1.9,1.8,3.1,1.8s2.5-0.7,3.1-1.8
	l6.7-10.7c1-0.1,2.1-0.2,3.1-0.3l8.6,9.2c0.9,0.9,2.2,1.4,3.4,1.1c1.3-0.2,2.3-1.1,2.7-2.3l4.4-11.8c1-0.3,2-0.6,3-0.9l10.2,7.4
	c1,0.7,2.4,0.9,3.6,0.4c1.2-0.5,2-1.6,2.2-2.8l2-12.4c0.9-0.5,1.9-1,2.8-1.5l11.5,5.2c1.2,0.5,2.5,0.4,3.6-0.3
	c1.1-0.7,1.7-1.9,1.6-3.2l-0.4-12.6c0.8-0.7,1.6-1.3,2.4-2l12.3,2.9c1.2,0.3,2.6-0.1,3.5-1c0.9-0.9,1.3-2.2,1-3.5l-2.9-12.3
	c0.7-0.8,1.3-1.6,2-2.4l12.6,0.4c1.3,0.1,2.5-0.6,3.2-1.6c0.7-1.1,0.8-2.4,0.3-3.6l-5.2-11.5c0.5-0.9,1-1.9,1.5-2.8l12.4-2
	c1.3-0.2,2.3-1,2.8-2.2c0.5-1.2,0.3-2.5-0.4-3.6l-7.4-10.2c0.3-1,0.6-2,0.9-3l11.8-4.4c1.2-0.5,2.1-1.5,2.3-2.7
	c0.3-1.3-0.2-2.6-1.1-3.4l-9.2-8.6c0.1-1,0.2-2.1,0.3-3.1l10.7-6.7c1.1-0.7,1.8-1.9,1.8-3.1S-127.7,382.5-128.7,381.9z
	 M-255.3,278.1c4.2,0,7.6,3.4,7.6,7.6c0,4.2-3.4,7.6-7.6,7.6c-4.2,0-7.6-3.4-7.6-7.6C-262.9,281.5-259.5,278.1-255.3,278.1z
	 M-361.9,385.3c0-4.2,3.4-7.6,7.6-7.6c4.2,0,7.6,3.4,7.6,7.6c0,4.2-3.4,7.6-7.6,7.6C-358.5,392.9-361.9,389.5-361.9,385.3z
	 M-254.7,491.9c-4.2,0-7.6-3.4-7.6-7.6c0-4.2,3.4-7.6,7.6-7.6c4.2,0,7.6,3.4,7.6,7.6C-247.1,488.5-250.5,491.9-254.7,491.9z
	 M-237.9,479.1l-11.7-12.2c-2.6-2.8-7-2.9-9.8-0.2l-13,12.4c-39-7.2-69.8-38-76.8-77l12.2-11.7c2.8-2.6,2.9-7,0.2-9.8l-12.4-13
	c7.2-39,38-69.8,77-76.8l11.7,12.2c2.6,2.8,7,2.9,9.8,0.2l13-12.4c39,7.2,69.8,38,76.8,77l-12.2,11.7c-2.8,2.6-2.9,7-0.2,9.8
	l12.4,13C-168.1,441.4-198.9,472.1-237.9,479.1z M-155.7,392.3c-4.2,0-7.6-3.4-7.6-7.6c0-4.2,3.4-7.6,7.6-7.6c4.2,0,7.6,3.4,7.6,7.6
	C-148.1,388.9-151.5,392.3-155.7,392.3z"/>
<path class="robot" d="M-185.9,399.2c0.9-4.6,1.4-9.3,1.4-14.2c0-13-3.5-25.2-9.7-35.7l4.4-4.4c0.9-0.9,1.5-2.2,1.5-3.5c0-1.3-0.5-2.6-1.5-3.5
	l-18-18c-0.9-0.9-2.2-1.5-3.5-1.5c-1.3,0-2.6,0.5-3.5,1.5l-4.4,4.4c-10.5-6.2-22.7-9.7-35.7-9.7s-25.2,3.5-35.7,9.7l-4.4-4.4
	c-0.9-0.9-2.2-1.5-3.5-1.5c-1.3,0-2.6,0.5-3.5,1.5l-18,18c-0.9,0.9-1.5,2.2-1.5,3.5c0,1.3,0.5,2.6,1.5,3.5l4.4,4.4
	c-6.2,10.5-9.7,22.7-9.7,35.7c0,13,3.5,25.2,9.7,35.7l-4.4,4.4c-0.9,0.9-1.5,2.2-1.5,3.5c0,1.3,0.5,2.6,1.5,3.5l18,18
	c0.9,0.9,2.2,1.5,3.5,1.5c1.3,0,2.6-0.5,3.5-1.5l4.4-4.4c10.5,6.2,22.7,9.7,35.7,9.7c7.3,0,14.3-1.1,21-3.2c2.2-0.7,4.4-1.5,6.5-2.4
	c2.9-1.2,5.6-2.6,8.3-4.2c0,0,0,0,0,0l4.4,4.4c0.9,0.9,2.2,1.5,3.5,1.5c1.3,0,2.6-0.5,3.5-1.5l18-18c0.9-0.9,1.5-2.2,1.5-3.5
	c0-1.3-0.5-2.6-1.5-3.5l-4.4-4.4c0.4-0.7,0.8-1.4,1.2-2.1C-189.8,412.6-187.3,406.1-185.9,399.2z M-255,403.7
	c-10.3,0-18.7-8.4-18.7-18.7s8.4-18.7,18.7-18.7s18.7,8.4,18.7,18.7S-244.7,403.7-255,403.7z M-255,320.5v39.8
	c-12.6,0-23,9.5-24.5,21.7h-39.9C-317.9,347.8-289.6,320.5-255,320.5z M-279.6,383.5c0,0,0-0.1,0-0.1
	C-279.6,383.4-279.6,383.5-279.6,383.5z M-279.6,386.6c0,0,0-0.1,0-0.1C-279.6,386.5-279.6,386.6-279.6,386.6z M-255,449.5
	c-34.6,0-62.9-27.3-64.4-61.5h39.9c1.5,12.2,11.9,21.7,24.5,21.7V449.5z"/>
</svg>
